<svg xmlns="http://www.w3.org/2000/svg" version="1.1" xmlns:xlink="http://www.w3.org/1999/xlink" xmlns:svgjs="http://svgjs.dev/svgjs" width="100%" height="100%" viewBox="0 0 1000 600"><rect width="1000" height="600" x="0" y="0" fill="#0000"/><g><circle r="166.66666666666666" cx="329.66889444986975" cy="351.89114482772345" fill="#8aaae5" transform="matrix(0.766860445378168,0,0,0.766860445378168,0,30.148588851713356)"/><path d="M304.03271751926525 426.89111098726585L278.6714920051675 426.89111098726585L278.6714920051675 276.8911075320731L380.6663185943896 276.8911075320731L380.6663185943896 296.6883907139963L304.03271751926525 296.6883907139963L304.03271751926525 342.1056874254672L372.0616170806779 342.1056874254672L372.0616170806779 361.67653109387174L304.03271751926525 361.67653109387174L304.03271751926525 426.89111098726585Z " fill="#ffffff" transform="matrix(0.766860445378168,0,0,0.766860445378168,0,30.148588851713356)"/><path d="M651.9550303420948 426.89109900380424L651.9550303420948 426.89109900380424Q616.0315872626219 426.89109900380424 597.8345593271684 407.4704778106219Q579.6689055778105 388.0498566174397 579.6689055778105 354.8245935421892L579.6689055778105 354.8245935421892Q579.6689055778105 330.88608955123914 587.5752004739041 313.3792937098891Q595.4814953699977 295.87249786853897 611.6078270231409 286.3974936676649Q627.7655328623799 276.8911152806952 652.6138882501026 276.8911152806952L652.6138882501026 276.8911152806952Q665.5086787353981 276.8911152806952 675.9876568913318 278.5853213298581Q686.4980092333609 280.27952737902103 695.7533941315656 283.4483201746776L695.7533941315656 283.4483201746776L695.7533941315656 304.68864416140525Q677.2426243351562 297.9118199647536 654.6532103463172 297.9118199647536L654.6532103463172 297.9118199647536Q626.8556814656072 297.9118199647536 615.6864712155701 312.5949390574988Q604.5172609655332 327.2780581502441 604.5172609655332 354.8245935421892L604.5172609655332 354.8245935421892Q604.5172609655332 379.8925682325812 616.2512065652912 393.00697802054594Q627.985152165049 406.1213878085107 652.6138882501026 406.1213878085107L652.6138882501026 406.1213878085107Q672.034509443285 406.1213878085107 684.0194485318076 401.603505010743L684.0194485318076 401.603505010743L684.0194485318076 360.94255983083303L647.6567668469962 360.94255983083303L647.6567668469962 344.87897654988103L705.0401532158661 344.87897654988103L705.0401532158661 414.90615991528136Q698.0123355304496 419.4240427130492 685.0234224868672 423.15757085842665Q672.034509443285 426.89109900380424 651.9550303420948 426.89109900380424ZM762.3921653986403 426.89109900380424L762.3921653986403 426.89109900380424Q752.2269291036629 426.89109900380424 743.536279555179 423.2830676028092Q734.8456300066952 419.675036201814 729.6375151148239 412.3334766554415Q724.4607744090484 404.9919171090688 724.4607744090484 394.1364487199879L724.4607744090484 394.1364487199879Q724.4607744090484 378.7630975331392 734.9711267510776 369.41359007664767Q745.450104907011 360.0327084340604 767.3806609878421 360.0327084340604L767.3806609878421 360.0327084340604L801.7040205764389 360.0327084340604L801.7040205764389 355.29520633362336Q801.7040205764389 347.60853074019906 799.3509566192682 343.09064794243125Q796.9665184760019 338.57276514466355 790.7544296290713 336.53344304844893Q784.5423407821405 334.4941209522343 772.5574016936176 334.4941209522343L772.5574016936176 334.4941209522343Q753.6073932918697 334.4941209522343 737.1045714055789 340.141474449444L737.1045714055789 340.141474449444L737.1045714055789 321.85032395570363Q744.3206342075692 318.9011504627164 754.7368639913115 317.1128218552666Q765.1217195889582 315.2931190617212 777.0752844913856 315.2931190617212L777.0752844913856 315.2931190617212Q800.5745498769971 315.2931190617212 812.9046050125716 324.7994974486909Q825.2032859620505 334.27450164956497 825.2032859620505 355.73444493896193L825.2032859620505 355.73444493896193L825.2032859620505 424.6321576049204L804.1825812779922 424.6321576049204L802.6138719732115 413.7766892158395Q796.0566670792292 420.1142748071526 786.4561661339727 423.5026869054784Q776.8556651887162 426.89109900380424 762.3921653986403 426.89109900380424ZM768.9493702926226 409.2588064180717L768.9493702926226 409.2588064180717Q780.0244579843728 409.2588064180717 788.2758689275182 405.5566524587898Q796.5272798706634 401.8231243134122 801.7040205764389 395.48553872209914L801.7040205764389 395.48553872209914L801.7040205764389 376.7551496230203L767.8198995931808 376.7551496230203Q756.9958053901954 376.7551496230203 752.132806545376 380.92791637373637Q747.2698077005565 385.1006831244524 747.2698077005565 393.69721011464935L747.2698077005565 393.69721011464935Q747.2698077005565 402.04274361608157 752.9171611977662 405.6507750170766Q758.5645146949759 409.2588064180717 768.9493702926226 409.2588064180717ZM876.7196995310413 424.6321576049204L852.5302020513265 424.6321576049204L852.5302020513265 317.55206046060516L875.1196160401652 317.55206046060516L876.2490867396072 328.8467674550245Q884.1553816357008 322.54055604980704 893.6617600226704 318.9011504627164Q903.1367642235444 315.2931190617212 913.9922326126253 315.2931190617212L913.9922326126253 315.2931190617212Q925.506558909714 315.2931190617212 931.938267059314 319.0266472070988Q938.3699752089141 322.76017535247627 941.7583873072398 329.3173802464587L941.7583873072398 329.3173802464587Q949.2254435979947 323.19941395781484 958.9200671015382 319.246266509768Q968.6460647911771 315.2931190617212 982.1997131844804 315.2931190617212L982.1997131844804 315.2931190617212Q1000.7104829808901 315.2931190617212 1009.5266292737564 324.7994974486909Q1018.3427755666224 334.27450164956497 1018.3427755666224 353.91474214541654L1018.3427755666224 353.91474214541654L1018.3427755666224 424.6321576049204L994.1846522730033 424.6321576049204L994.1846522730033 356.42467703306534Q994.1846522730033 344.000499339204 988.9765373811321 339.012003750002Q983.7684224892608 334.05488234689574 972.034476889503 334.05488234689574L972.034476889503 334.05488234689574Q964.3478012960785 334.05488234689574 957.4768545411401 336.75306235111816Q950.5745336001061 339.4826165414362 945.6174121969997 344.87897654988103L945.6174121969997 344.87897654988103Q946.2762701050075 347.3889114375297 946.4958894076768 350.08709144175214Q946.7468828964417 352.78527144597456 946.7468828964417 355.95406424163116L946.7468828964417 355.95406424163116L946.7468828964417 424.6321576049204L923.9064754188379 424.6321576049204L923.9064754188379 356.64429633573457Q923.9064754188379 344.87897654988103 919.8592054125044 339.4826165414362Q915.7805612200751 334.05488234689574 904.4858542256558 334.05488234689574L904.4858542256558 334.05488234689574Q896.5795593295621 334.05488234689574 889.4576190858587 337.7884104922732Q882.367053028251 341.4905644515552 876.7196995310413 346.6986793434263L876.7196995310413 346.6986793434263L876.7196995310413 424.6321576049204ZM1097.8449631328967 426.89109900380424L1097.8449631328967 426.89109900380424Q1069.8591891356132 426.89109900380424 1054.4858379487646 413.1178313078317Q1039.112486761916 399.34456361185914 1039.112486761916 370.8568026370457L1039.112486761916 370.8568026370457Q1039.112486761916 345.12997003864587 1052.226896549881 330.19585745713573Q1065.3413063378457 315.2931190617212 1091.9779903330182 315.2931190617212L1091.9779903330182 315.2931190617212Q1116.3871071154022 315.2931190617212 1128.6857880648813 328.0624128026343Q1141.0158432004555 340.8317065435474 1141.0158432004555 360.94255983083303L1141.0158432004555 360.94255983083303L1141.0158432004555 380.80241962935384L1062.6117521475276 380.80241962935384Q1064.4314549410728 396.3953901188718 1073.906459141947 402.2623629187508Q1083.4128375289165 408.1293357186297 1102.8334587220988 408.1293357186297L1102.8334587220988 408.1293357186297Q1110.9593729208618 408.1293357186297 1119.555899911059 406.56062641384926Q1128.1210527151602 404.9919171090688 1134.4586383064734 402.48198222142L1134.4586383064734 402.48198222142L1134.4586383064734 420.55351341249116Q1127.2112013183873 423.72230620814764 1117.8616938618957 425.3223896990238Q1108.4808122193085 426.89109900380424 1097.8449631328967 426.89109900380424ZM1062.6117521475276 364.77021053449744L1062.6117521475276 364.77021053449744L1119.3049064222937 364.77021053449744L1119.3049064222937 357.30315424374237Q1119.3049064222937 346.25944073808785 1113.2183143197458 340.0473518911572Q1107.1317222171974 333.8352630442265 1092.6682224271217 333.8352630442265L1092.6682224271217 333.8352630442265Q1075.5065426328229 333.8352630442265 1069.0434602971277 341.27094514888597Q1062.6117521475276 348.7380014396409 1062.6117521475276 364.77021053449744Z " fill="#8aaae5" transform="matrix(0.766860445378168,0,0,0.766860445378168,0,30.148588851713356)"/></g></svg>